<?xml version="1.0" encoding="iso-8859-1"?>
<!-- Generator: Adobe Illustrator 18.0.0, SVG Export Plug-In . SVG Version: 6.00 Build 0)  -->
<!DOCTYPE svg PUBLIC "-//W3C//DTD SVG 1.1//EN" "http://www.w3.org/Graphics/SVG/1.1/DTD/svg11.dtd">
<svg version="1.1" id="Capa_1" xmlns="http://www.w3.org/2000/svg" xmlns:xlink="http://www.w3.org/1999/xlink" x="0px" y="0px"
	 viewBox="0 0 215.017 215.017" style="enable-background:new 0 0 215.017 215.017;" xml:space="preserve">
<path d="M215.017,38.768c0-8.374-3.261-16.247-9.184-22.17c-5.922-5.922-13.795-9.183-22.168-9.183
	c-8.374,0-16.247,3.261-22.169,9.183l-37.371,37.37c-5.075-2.29-10.697-3.576-16.617-3.576c-5.92,0-11.542,1.286-16.617,3.575
	l-37.371-37.37c-5.921-5.922-13.794-9.183-22.168-9.183c-8.374,0-16.247,3.261-22.169,9.184C3.261,22.521,0,30.394,0,38.768
	c0,0.013,0.001,0.027,0.001,0.04v47.636c-0.005,8.379,3.256,16.257,9.182,22.181c5.922,5.923,13.769,9.169,22.14,9.169
	c0.128,0,0.256-0.001,0.384-0.002H42.66l-23.721,57.265c-1.161,2.802-0.519,6.028,1.626,8.173c2.145,2.146,5.373,2.788,8.173,1.626
	l30.928-12.81l12.811,30.927c1.161,2.803,3.896,4.63,6.929,4.63c3.033,0,5.768-1.828,6.929-4.63l21.174-51.115l21.174,51.115
	c1.161,2.803,3.896,4.63,6.929,4.63c3.034,0,5.769-1.828,6.929-4.63l12.809-30.926l30.928,12.81c2.803,1.162,6.029,0.52,8.173-1.626
	c2.145-2.145,2.787-5.371,1.626-8.173l-23.719-57.265h10.952c0.129,0.002,0.256,0.002,0.384,0.002c8.37,0,16.218-3.246,22.139-9.168
	c5.926-5.924,9.187-13.802,9.183-22.178V38.808C215.016,38.795,215.017,38.781,215.017,38.768z M172.103,27.204
	c3.089-3.089,7.195-4.79,11.562-4.79c4.367,0,8.473,1.701,11.561,4.789c3.084,3.085,4.784,7.184,4.79,11.544v0.04
	c-0.005,4.36-1.705,8.458-4.79,11.541c-3.079,3.079-7.18,4.775-11.548,4.775l-0.222-0.001c-0.033,0-0.067,0-0.1,0h-39.152
	L172.103,27.204z M133.061,90.944c0,14.09-11.463,25.554-25.553,25.554c-14.09,0-25.554-11.463-25.554-25.554
	c0-14.089,11.463-25.552,25.554-25.552C121.598,65.392,133.061,76.854,133.061,90.944z M31.352,22.414
	c4.367,0,8.473,1.701,11.562,4.79l27.898,27.898H31.661c-0.033,0-0.067,0-0.1,0l-0.222,0.001c-4.369,0-8.47-1.695-11.549-4.775
	c-3.083-3.083-4.783-7.181-4.789-11.541v-0.04c0.005-4.36,1.706-8.459,4.789-11.544C22.879,24.115,26.985,22.414,31.352,22.414z
	 M31.661,102.792c-0.034,0-0.068,0-0.102,0.001c-4.468,0.091-8.632-1.635-11.769-4.774c-3.09-3.09-4.791-7.197-4.789-11.57V65.521
	c4.867,2.983,10.477,4.583,16.338,4.583l41.397-0.001c-3.667,6.095-5.781,13.225-5.781,20.841c0,4.121,0.622,8.099,1.77,11.849
	H53.881c-0.028,0-0.056,0-0.084,0H31.661z M79.406,180.505l-8.751-21.128c-1.585-3.827-5.974-5.643-9.799-4.059l-21.128,8.751
	l19.169-46.277h18.255c5.855,6.612,13.828,11.301,22.849,12.997L79.406,180.505z M175.29,164.07l-21.129-8.751
	c-1.838-0.761-3.903-0.761-5.74,0c-1.838,0.761-3.298,2.222-4.059,4.059l-8.75,21.127l-20.594-49.715
	c9.02-1.696,16.992-6.385,22.846-12.997h18.258L175.29,164.07z M195.227,98.019c-3.138,3.139-7.343,4.866-11.769,4.773
	c-0.034-0.001-0.068-0.001-0.102-0.001h-22.139c-0.025,0-0.049,0-0.074,0h-14.853c1.148-3.75,1.77-7.727,1.77-11.849
	c0-7.617-2.114-14.747-5.782-20.842h41.077l0.322,0.002c5.861,0,11.471-1.6,16.338-4.582v20.931
	C200.018,90.822,198.317,94.929,195.227,98.019z"/>
<g>
</g>
<g>
</g>
<g>
</g>
<g>
</g>
<g>
</g>
<g>
</g>
<g>
</g>
<g>
</g>
<g>
</g>
<g>
</g>
<g>
</g>
<g>
</g>
<g>
</g>
<g>
</g>
<g>
</g>
</svg>
